# xmcd
#
# Track frame offsets:
#	150
#	5398
#	28170
#	57025
#	89845
#	110838
#	132258
#	155212
#	176901
#
# Disc length: 2630 seconds
#
# Revision: 0
# Processed by: cddbd v1.5.2PL0 Copyright (c) Steve Scherf et al.
# Submitted via: EZCDAudioConverter 6.0.8.1
#
DISCID=7f0a4409
DTITLE=Cross Borns - A Londoni Rém
DYEAR=1900
DGENRE=metal
TTITLE0=Intro
TTITLE1=Egy Másik London
TTITLE2=A Jelek Útvesztőjében
TTITLE3=Az Üreg Mélyén
TTITLE4=Az Elveszett Négyes
TTITLE5=A Londoni Rém
TTITLE6=Szegény Mary Jean
TTITLE7=Sötét Király
TTITLE8=Hallgatni Kell Csendben
EXTD=
EXTT0=
EXTT1=
EXTT2=
EXTT3=
EXTT4=
EXTT5=
EXTT6=
EXTT7=
EXTT8=
PLAYORDER=
